PathFileType	4	(X/Y/Z)	/Users/niels/Desktop/University/Third Semester/Perception and Action/Exam/Gymnastics Motion Tracking/Code for Gym Tracking/Analyzed Data/Webcam_Backflip/id6_1_baseline_Sports2D/id6_1_baseline_Sports2D_px_person00.trc
DataRate	CameraRate	NumFrames	NumMarkers	Units	OrigDataRate	OrigDataStartFrame	OrigNumFrames
29.806451612903224	29.806451612903224	8	22	m	29.806451612903224	38	155
Frame#	Time	Hip			RHip			RKnee			RAnkle			RBigToe			RSmallToe			RHeel			LHip			LKnee			LAnkle			LBigToe			LSmallToe			LHeel			Neck			Head			Nose			RShoulder			RElbow			RWrist			LShoulder			LElbow			LWrist		
		X1	Y1	Z1	X2	Y2	Z2	X3	Y3	Z3	X4	Y4	Z4	X5	Y5	Z5	X6	Y6	Z6	X7	Y7	Z7	X8	Y8	Z8	X9	Y9	Z9	X10	Y10	Z10	X11	Y11	Z11	X12	Y12	Z12	X13	Y13	Z13	X14	Y14	Z14	X15	Y15	Z15	X16	Y16	Z16	X17	Y17	Z17	X18	Y18	Z18	X19	Y19	Z19	X20	Y20	Z20	X21	Y21	Z21	X22	Y22	Z22
38	1.274891774891775	0.8971214793990251	-0.3911813138992095	0.0	0.8902502418310705	-0.39120783534912795	0.0	0.8475520803123121	-0.48046368196966854	0.0	0.7920322860750949	-0.4657782752732229	0.0	0.7807319885357724	-0.5013465869846155	0.0	0.7746302425219265	-0.4950656069466655	0.0	0.7817783501272223	-0.45760781008226015	0.0	0.904356419037576	-0.39416984280421946	0.0	0.8565861318549775	-0.48035925559597475	0.0	0.8148239191036092	-0.46917765455953286	0.0	0.7971869768172459	-0.50028466360115	0.0	0.7995352371460347	-0.49279968635354404	0.0	0.8082288990072207	-0.4599362853546369	0.0	0.9649655562615237	-0.5025747242787596	0.0	0.9927182895051133	-0.5577399557372977	0.0	0.9698797218581146	-0.5463249174224366	0.0	0.9582794586574379	-0.48862974961914457	0.0	0.8989033900999758	-0.4591682243623647	0.0	0.8672514805164422	-0.4907106852452125	0.0	0.9683683323520472	-0.49162136225038056	0.0	0.9696925143107841	-0.5016881134251241	0.0	1.0258060521757872	-0.5247306133689895	0.0
39	1.3084415584415585	0.8820213150892618	-0.4156083761234369	0.0	0.8749894724380715	-0.415417625645098	0.0	0.8478161934882479	-0.5149332225442966	0.0	0.7839498081208034	-0.53073427009653	0.0	0.7830748236013494	-0.5725367086218436	0.0	0.7759575163576705	-0.5674678826886539	0.0	0.7713638229051532	-0.5278021865649378	0.0	0.890296708901397	-0.41826730422845054	0.0	0.8569863636225692	-0.5150586792928408	0.0	0.8086351822083393	-0.5321663181443141	0.0	0.8042457370016214	-0.5670705359754171	0.0	0.8060640248047752	-0.5597127306052004	0.0	0.7960731645426247	-0.5286877131699853	0.0	0.9745005378163316	-0.5055731333466326	0.0	1.0157973578343733	-0.5562386603126922	0.0	0.98633267747721	-0.5478885943970107	0.0	0.9646894530556962	-0.49231839764918	0.0	0.8983037561796544	-0.4811508153856004	0.0	0.8754693862971159	-0.5241811758027568	0.0	0.9748724238210885	-0.49341007182739904	0.0	0.9531918288099693	-0.5087727323735844	0.0	1.0100876729609622	-0.5386487976781934	0.0
40	1.341991341991342	0.8683104397881661	-0.44828740434906356	0.0	0.8620365522913211	-0.4476662996929691	0.0	0.8486960177513879	-0.5530549288819319	0.0	0.7870675160971116	-0.5983090522717421	0.0	0.7974258547588183	-0.6406849128406038	0.0	0.789739374164186	-0.6375706161100845	0.0	0.7733171861951477	-0.6011899030368274	0.0	0.8768282513299633	-0.4503561417004317	0.0	0.8573931683607761	-0.5531507008772102	0.0	0.809201182554527	-0.5971043798810106	0.0	0.8182725156710209	-0.6325350399386636	0.0	0.8184314691442033	-0.626366296937837	0.0	0.792702729536549	-0.6000790805458229	0.0	0.9779246417883292	-0.5092094619523342	0.0	1.030593460399532	-0.5531647018411995	0.0	0.9963053152687891	-0.5486755682022871	0.0	0.9658824555781665	-0.4977020184653404	0.0	0.8970270822592841	-0.5032041320532709	0.0	0.8832781206956488	-0.5545696228190172	0.0	0.9747931196216347	-0.4968739542956526	0.0	0.9351470412653744	-0.5193326810360009	0.0	0.9852770456742537	-0.557532497558509	0.0
41	1.3755411255411256	0.8569340267709471	-0.48774619055675644	0.0	0.8518731933144967	-0.48686501128370513	0.0	0.8505080395262445	-0.5945407571646709	0.0	0.7978395430237702	-0.6636627569180895	0.0	0.8176423631819848	-0.7024451544911342	0.0	0.8097714345626285	-0.7015100637117943	0.0	0.7840882415590135	-0.6716608641223953	0.0	0.8649730700766257	-0.489379478780349	0.0	0.858084934318954	-0.5942342590437433	0.0	0.8147336141606719	-0.6603149334554879	0.0	0.8345242842044284	-0.6934571803090482	0.0	0.8326973999335926	-0.6889212690539361	0.0	0.7969019791771305	-0.6688751205231275	0.0	0.9755877017041192	-0.5148256894278481	0.0	1.0368805493778308	-0.550021590754888	0.0	1.0000173040768394	-0.5504917926290136	0.0	0.9618182222975692	-0.5057978223625607	0.0	0.8934487407126719	-0.5246072268865545	0.0	0.8867094759802723	-0.581162834720397	0.0	0.9690241837555684	-0.5034519800258672	0.0	0.9196793488585565	-0.5346603697390179	0.0	0.9599536442959716	-0.5801599570940446	0.0
42	1.4090909090909092	0.8486227033451347	-0.531376669693181	0.0	0.8447414812092547	-0.5305898145366458	0.0	0.8533286409782327	-0.637781568623553	0.0	0.8114315038850362	-0.7233270597991125	0.0	0.8376428223172406	-0.7563255748004835	0.0	0.8297119843841524	-0.7572912779527872	0.0	0.7985236830157166	-0.7347662636782262	0.0	0.855717846307904	-0.5328712671496388	0.0	0.8593797521682108	-0.6369560264452064	0.0	0.8227701659342624	-0.7188436228368374	0.0	0.8494378167563573	-0.7476015836154587	0.0	0.8458245867429227	-0.7445922596544267	0.0	0.8055707991408818	-0.7309668337625495	0.0	0.9682902116419186	-0.5229538679619213	0.0	1.0351888036768797	-0.5475485924209594	0.0	0.9981363164695455	-0.5539287947396458	0.0	0.9530299997064147	-0.5168089181253654	0.0	0.8865121789917731	-0.5452249236176707	0.0	0.8833599130179598	-0.604364270616898	0.0	0.9589282054481084	-0.5136167123704986	0.0	0.907208124467307	-0.5538622602080475	0.0	0.9393313218170789	-0.60383051393385	0.0
43	1.4426406926406927	0.8435194936021144	-0.5753428282383762	0.0	0.8405090712669914	-0.5749625868364147	0.0	0.8566226770519746	-0.6799566097547174	0.0	0.8235684918265543	-0.7748331157907811	0.0	0.8532824315961014	-0.8015166002884542	0.0	0.8451403662628171	-0.8037422339942288	0.0	0.8118269599462444	-0.787709203803191	0.0	0.8495547021102833	-0.5768968927384792	0.0	0.8611041889776228	-0.6787510357282729	0.0	0.830560687234676	-0.7701413362064986	0.0	0.8607973477444073	-0.793504022686984	0.0	0.8559545600986422	-0.7916968796262449	0.0	0.8149212773626832	-0.7835388702812555	0.0	0.9572073223610675	-0.53302988635077	0.0	1.0266939793022078	-0.5456113154073123	0.0	0.9916341611199122	-0.5583095143988276	0.0	0.9406659459796815	-0.5299656379319923	0.0	0.8763347996683859	-0.5647846582610495	0.0	0.872910273682171	-0.6246472471290846	0.0	0.9459815662401297	-0.5266486432429671	0.0	0.8962797619095388	-0.5745966944805074	0.0	0.9230811360850752	-0.6262264433569773	0.0
44	1.4761904761904763	0.8411546654166245	-0.614886255290808	0.0	0.838601233430771	-0.6150702776020929	0.0	0.8595954582912615	-0.7172890269538383	0.0	0.8319166813278163	-0.8159754587840179	0.0	0.8631607120339926	-0.8369060003485966	0.0	0.8545376841960518	-0.8396539196784446	0.0	0.8211661076076543	-0.8287596603331977	0.0	0.8462931824325166	-0.6165479220094486	0.0	0.8628155394202377	-0.7159341093974126	0.0	0.8362629261133901	-0.8117052405443924	0.0	0.8680554340437493	-0.829976924738116	0.0	0.8627179234081244	-0.8290041927676355	0.0	0.8221966239687098	-0.8247316428134422	0.0	0.9437709473097413	-0.543342379352653	0.0	1.0131507260130614	-0.5431457503954435	0.0	0.9817842489354108	-0.5619548367056347	0.0	0.926253551339256	-0.5434049477763152	0.0	0.8641777970898611	-0.5821975330628311	0.0	0.8568987569723368	-0.6415415346625454	0.0	0.9315630294423213	-0.5404939364881589	0.0	0.8855101147105686	-0.59369947194284	0.0	0.9081895272340826	-0.6451756455172786	0.0
45	1.5097402597402598	0.8406641166036709	-0.6451925595312801	0.0	0.8381666121254642	-0.6459422980267011	0.0	0.8616531178495803	-0.7457082278221607	0.0	0.8362704141725235	-0.8445583821501098	0.0	0.8679360240474641	-0.8609612995237494	0.0	0.8587360670653624	-0.8636493340743038	0.0	0.8260615332563778	-0.8566718773874691	0.0	0.8451941204253758	-0.6468957408612134	0.0	0.8641271637853848	-0.7444019599140607	0.0	0.8394846449954549	-0.8409670453413671	0.0	0.8719041487868311	-0.8555850652689277	0.0	0.866764698651916	-0.8550439374621734	0.0	0.8264713752590795	-0.8530575522399493	0.0	0.929469651562501	-0.5511811611202774	0.0	0.9967160453666536	-0.53854764023365	0.0	0.9699838742217638	-0.5627054842578567	0.0	0.9113814831444428	-0.5542428182790605	0.0	0.8518298351011196	-0.5954160989999308	0.0	0.8382345661493245	-0.6534590797141603	0.0	0.9168751911948573	-0.5518303006793622	0.0	0.8743457606982734	-0.6075968426963624	0.0	0.892023372262861	-0.6581460791136934	0.0
